<svg width="144" height="20" fill="none" xmlns="http://www.w3.org/2000/svg"><path d="M8.242.592h3.328l2.106 6.11 2.132-6.11h3.302L15.938 8.99l2.34 5.876L23.504.54h3.9L20.02 19h-3.094l-3.25-7.748L10.452 19H7.358L0 .54h3.848L9.1 14.866l2.288-5.876L8.242.592zM34.227 19.26c-1.473 0-2.747-.32-3.822-.962a6.826 6.826 0 01-2.47-2.548 7.13 7.13 0 01-.884-3.484c0-1.283.286-2.461.858-3.536a6.662 6.662 0 012.496-2.6c1.075-.659 2.357-.988 3.848-.988 1.49 0 2.765.33 3.822.988a6.395 6.395 0 012.418 2.574 7.1 7.1 0 01.858 3.432c0 .45-.026.84-.078 1.17h-10.53c.087 1.057.477 1.89 1.17 2.496.71.607 1.525.91 2.444.91.693 0 1.343-.165 1.95-.494.624-.347 1.049-.797 1.274-1.352l2.99.832c-.503 1.04-1.309 1.898-2.418 2.574-1.11.659-2.418.988-3.926.988zm-3.562-8.164h7.124c-.104-1.023-.494-1.846-1.17-2.47-.659-.641-1.465-.962-2.418-.962-.936 0-1.742.32-2.418.962-.659.624-1.031 1.447-1.118 2.47zm21.336 8.164c-1.04 0-1.967-.234-2.782-.702a5.126 5.126 0 01-1.924-1.924V19h-3.042V.02h3.484v7.748a5.457 5.457 0 011.898-1.924c.798-.468 1.725-.702 2.782-.702 1.18 0 2.21.33 3.094.988.902.641 1.604 1.5 2.106 2.574.503 1.075.754 2.253.754 3.536 0 1.317-.277 2.505-.832 3.562a6.561 6.561 0 01-2.288 2.522c-.953.624-2.036.936-3.25.936zm-.962-2.964c.746 0 1.396-.182 1.95-.546a3.702 3.702 0 001.326-1.456c.33-.624.494-1.3.494-2.028 0-.745-.156-1.43-.468-2.054a3.764 3.764 0 00-1.248-1.534 3.11 3.11 0 00-1.846-.572c-.762 0-1.464.26-2.106.78a4.693 4.693 0 00-1.404 1.872v3.25c.226.676.668 1.23 1.326 1.664.66.416 1.318.624 1.976.624z" fill="#2196F3"/><path d="M72.848 5.376c-.156-.173-.485-.399-.988-.676-.503-.295-1.11-.555-1.82-.78a6.485 6.485 0 00-2.158-.364c-1.959 0-2.938.693-2.938 2.08 0 .503.156.901.468 1.196.312.295.78.546 1.404.754.624.208 1.404.433 2.34.676 1.213.312 2.262.676 3.146 1.092.901.416 1.586.97 2.054 1.664.485.676.728 1.577.728 2.704 0 1.317-.32 2.383-.962 3.198-.624.797-1.456 1.378-2.496 1.742-1.04.364-2.167.546-3.38.546-1.387 0-2.765-.208-4.134-.624-1.352-.433-2.557-1.023-3.614-1.768l1.586-3.094c.156.156.433.364.832.624.399.243.884.494 1.456.754.572.243 1.196.45 1.872.624a8.24 8.24 0 002.054.26c1.976 0 2.964-.633 2.964-1.898 0-.537-.2-.97-.598-1.3-.399-.33-.962-.607-1.69-.832-.71-.225-1.543-.477-2.496-.754-1.179-.33-2.158-.693-2.938-1.092-.763-.416-1.335-.927-1.716-1.534-.381-.624-.572-1.413-.572-2.366 0-1.265.295-2.323.884-3.172.607-.867 1.421-1.517 2.444-1.95C65.603.636 66.738.41 67.986.41c1.283 0 2.479.208 3.588.624 1.11.416 2.063.893 2.86 1.43l-1.586 2.912zm13.249 12.922c-.468.208-1.05.416-1.742.624a7.12 7.12 0 01-2.106.312c-.642 0-1.231-.113-1.768-.338a2.892 2.892 0 01-1.3-1.066c-.312-.503-.468-1.153-.468-1.95V8.054h-1.794V5.376h1.794V.956h3.484v4.42h2.86v2.678h-2.86v6.656c0 .468.12.806.364 1.014.26.208.572.312.936.312.364 0 .719-.06 1.066-.182.346-.121.624-.225.832-.312l.702 2.756zm2.464-4.394V5.376h3.484v7.774c0 2.097.754 3.146 2.262 3.146.676 0 1.326-.2 1.95-.598.641-.416 1.161-1.04 1.56-1.872v-8.45h3.484V15.1c0 .381.061.65.182.806.121.139.338.225.65.26V19a7.272 7.272 0 01-1.508.156c-.624 0-1.135-.139-1.534-.416-.381-.295-.607-.693-.676-1.196l-.078-1.092c-.607.936-1.387 1.638-2.34 2.106-.953.468-2.002.702-3.146.702-1.404 0-2.47-.45-3.198-1.352-.728-.919-1.092-2.253-1.092-4.004zm16.15-1.716c0-1.3.26-2.487.78-3.562.52-1.075 1.24-1.924 2.158-2.548.919-.624 1.968-.936 3.146-.936 1.006 0 1.907.251 2.704.754.815.485 1.448 1.11 1.898 1.872V.02h3.484V15.1c0 .381.061.65.182.806.122.139.33.225.624.26V19c-.624.121-1.118.182-1.482.182-.624 0-1.144-.156-1.56-.468a1.72 1.72 0 01-.676-1.222l-.052-.858a5.05 5.05 0 01-2.054 1.95 5.634 5.634 0 01-2.678.676c-1.265 0-2.383-.312-3.354-.936a6.772 6.772 0 01-2.288-2.548c-.554-1.075-.832-2.27-.832-3.588zm10.686 1.82v-3.25a4.05 4.05 0 00-1.43-1.898c-.676-.503-1.369-.754-2.08-.754-.71 0-1.334.2-1.872.598a3.77 3.77 0 00-1.248 1.534 4.698 4.698 0 00-.442 2.028c0 .745.165 1.43.494 2.054a3.99 3.99 0 001.326 1.456c.572.347 1.222.52 1.95.52.659 0 1.309-.217 1.95-.65.659-.433 1.11-.98 1.352-1.638zm7.684-10.53V.02h3.484v3.458h-3.484zm0 15.522V5.376h3.484V19h-3.484zm13.699.26c-1.491 0-2.773-.32-3.848-.962a6.769 6.769 0 01-2.444-2.6 7.302 7.302 0 01-.858-3.484c0-1.265.286-2.435.858-3.51a6.772 6.772 0 012.47-2.574c1.075-.659 2.349-.988 3.822-.988 1.473 0 2.739.33 3.796.988a6.523 6.523 0 012.47 2.574 7.354 7.354 0 01.858 3.51c0 1.248-.286 2.41-.858 3.484-.572 1.075-1.395 1.941-2.47 2.6-1.057.641-2.323.962-3.796.962zm-3.562-7.046c0 .797.156 1.508.468 2.132a3.649 3.649 0 001.274 1.43c.537.347 1.144.52 1.82.52.659 0 1.257-.173 1.794-.52.537-.364.962-.85 1.274-1.456.329-.624.494-1.335.494-2.132 0-.78-.165-1.473-.494-2.08-.312-.624-.737-1.11-1.274-1.456a3.126 3.126 0 00-1.794-.546 3.17 3.17 0 00-1.82.546c-.537.347-.962.832-1.274 1.456-.312.607-.468 1.309-.468 2.106z" fill="#000"/></svg>